custom-analysis
version=1
nRows=6
nColumns=98
inDegrees=no

This file contains tibia displacement and acting force.

Units are S.I. units (seconds, meters, Newtons, ...)
Angles are in degrees.

endheader
time	APT	SIT	knee_angle	aACL_R_force	pACL_R_force	aPCL_R_force	pPCL_R_force	aMCL_R_force	mMCL_R_force	pMCL_R_force	aLCL_R_force	mLCL_R_force	pLCL_R_force	aPCL_L_force	pPCL_L_force	aMCL_L_force	aLCL_L_force	aACL_R_length	pACL_R_length	aPCL_R_length	pPCL_R_length	aMCL_R_length	mMCL_R_length	pMCL_R_length	aLCL_R_length	mLCL_R_length	pLCL_R_length	aPCL_L_length	pPCL_L_length	aMCL_L_length	aLCL_L_length	aACL_R_strain	pACL_R_strain	aPCL_R_strain	pPCL_R_strain	aMCL_R_strain	mMCL_R_strain	pMCL_R_strain	aLCL_R_strain	mLCL_R_strain	pLCL_R_strain	aPCL_L_strain	pPCL_L_strain	aMCL_L_strain	aLCL_L_strain	femur_lat_meniscii_r.femur_lat_r.force.X	femur_lat_meniscii_r.femur_lat_r.force.Y	femur_lat_meniscii_r.femur_lat_r.force.Z	femur_lat_meniscii_r.femur_lat_r.torque.X	femur_lat_meniscii_r.femur_lat_r.torque.Y	femur_lat_meniscii_r.femur_lat_r.torque.Z	femur_lat_meniscii_r.meniscus_lat_r.force.X	femur_lat_meniscii_r.meniscus_lat_r.force.Y	femur_lat_meniscii_r.meniscus_lat_r.force.Z	femur_lat_meniscii_r.meniscus_lat_r.torque.X	femur_lat_meniscii_r.meniscus_lat_r.torque.Y	femur_lat_meniscii_r.meniscus_lat_r.torque.Z	femur_med_meniscii_r.femur_med_r.force.X	femur_med_meniscii_r.femur_med_r.force.Y	femur_med_meniscii_r.femur_med_r.force.Z	femur_med_meniscii_r.femur_med_r.torque.X	femur_med_meniscii_r.femur_med_r.torque.Y	femur_med_meniscii_r.femur_med_r.torque.Z	femur_med_meniscii_r.meniscus_med_r.force.X	femur_med_meniscii_r.meniscus_med_r.force.Y	femur_med_meniscii_r.meniscus_med_r.force.Z	femur_med_meniscii_r.meniscus_med_r.torque.X	femur_med_meniscii_r.meniscus_med_r.torque.Y	femur_med_meniscii_r.meniscus_med_r.torque.Z	femur_med_tibia_r.tibia_upper_r.force.X	femur_med_tibia_r.tibia_upper_r.force.Y	femur_med_tibia_r.tibia_upper_r.force.Z	femur_med_tibia_r.tibia_upper_r.torque.X	femur_med_tibia_r.tibia_upper_r.torque.Y	femur_med_tibia_r.tibia_upper_r.torque.Z	femur_med_tibia_r.femur_med_r.force.X	femur_med_tibia_r.femur_med_r.force.Y	femur_med_tibia_r.femur_med_r.force.Z	femur_med_tibia_r.femur_med_r.torque.X	femur_med_tibia_r.femur_med_r.torque.Y	femur_med_tibia_r.femur_med_r.torque.Z	femur_lat_tibia_r.tibia_upper_r.force.X	femur_lat_tibia_r.tibia_upper_r.force.Y	femur_lat_tibia_r.tibia_upper_r.force.Z	femur_lat_tibia_r.tibia_upper_r.torque.X	femur_lat_tibia_r.tibia_upper_r.torque.Y	femur_lat_tibia_r.tibia_upper_r.torque.Z	femur_lat_tibia_r.femur_lat_r.force.X	femur_lat_tibia_r.femur_lat_r.force.Y	femur_lat_tibia_r.femur_lat_r.force.Z	femur_lat_tibia_r.femur_lat_r.torque.X	femur_lat_tibia_r.femur_lat_r.torque.Y	femur_lat_tibia_r.femur_lat_r.torque.Z	femur_lat_meniscii_force_r	femur_med_meniscii_force_r	femur_lat_tibia_force_r	femur_med_tibia_force_r
      0.13530264	      0.00886637	      0.01013780	     39.23208182	     16.55479041	      8.70245750	    450.53830159	    318.41607286	      0.00000000	      0.00000000	      0.00000000	     -1.38412281	      0.00000000	      0.00000000	      0.00000000	      0.00000000	      0.00000001	      0.00000000	      0.03193120	      0.02528114	      0.03422754	      0.03204536	      0.05778417	      0.05869515	      0.05680149	      0.05624794	      0.05232603	      0.04819679	      0.01525851	      0.01651186	      0.06550154	      0.04489616	      0.02985614	      0.00887681	      0.10073035	      0.07218856	     -0.03736374	     -0.01836905	     -0.03280402	      0.00483660	     -0.07089263	     -0.07920704	      0.00000079	     -0.32847694	      0.00000060	     -0.00000086	    396.80885577	    410.85872611	     44.14883487	    -27.91079773	      9.86416780	    159.55147099	   -396.80885577	   -410.85872611	    -44.14883487	     12.40589738	    -11.75590482	     -2.58881375	    371.95437629	    532.58720621	     14.70818388	      5.83047916	     -7.78431361	    147.60245117	   -371.95437629	   -532.58720621	    -14.70818388	     -9.65629407	      6.34240206	      1.36034835	    -27.84964777	   -199.39257441	     75.66783341	     -5.04643613	      1.53750850	      2.20643500	     27.84964777	    199.39257441	    -75.66783341	     34.67966277	     -0.69192017	     10.92832669	      0.00000000	      0.00000000	      0.00000000	      0.00000000	      0.00000000	      0.00000000	      0.00000000	      0.00000000	      0.00000000	      0.00000000	      0.00000000	      0.00000000	    572.89726867	    649.78113310	      0.00000000	    215.07817793
      0.13558984	      0.00889631	      0.01017919	     39.36699320	     16.66309888	      8.76181205	    453.53591940	    320.01795163	      0.00000000	      0.00000000	      0.00000000	     -1.31626839	      0.00000000	      0.00000000	      0.00000000	      0.00000000	      0.00000001	      0.00000000	      0.03193845	      0.02528692	      0.03424458	      0.03205597	      0.05779316	      0.05869224	      0.05678737	      0.05624747	      0.05231859	      0.04818274	      0.01525851	      0.01651186	      0.06550154	      0.04489616	      0.03008991	      0.00910732	      0.10127837	      0.07254354	     -0.03721398	     -0.01841767	     -0.03304434	      0.00482828	     -0.07102458	     -0.07947547	      0.00000079	     -0.32847694	      0.00000060	     -0.00000086	    397.89223990	    409.53050281	     45.70932933	    -28.51584190	      9.89991499	    159.99834574	   -397.89223990	   -409.53050281	    -45.70932933	     12.40426311	    -11.81309054	     -2.60868309	    374.67326286	    536.97162220	     12.57226895	      6.73049566	     -7.82157566	    148.63517532	   -374.67326286	   -536.97162220	    -12.57226895	     -9.72975421	      6.40014313	      1.45793239	    -28.35481321	   -200.32874547	     75.93534537	     -5.06153965	      1.55483437	      2.22419210	     28.35481321	    200.32874547	    -75.93534537	     34.79958489	     -0.70326822	     11.12676973	      0.00000000	      0.00000000	      0.00000000	      0.00000000	      0.00000000	      0.00000000	      0.00000000	      0.00000000	      0.00000000	      0.00000000	      0.00000000	      0.00000000	    572.82005036	    654.88673745	      0.00000000	    216.10594247
      0.13594335	      0.00893314	      0.01023029	     39.53319765	     16.80197808	      8.82669011	    457.20100299	    321.93285914	      0.00000000	      0.00000000	      0.00000000	     -1.23733213	      0.00000000	      0.00000000	      0.00000000	      0.00000000	      0.00000001	      0.00000000	      0.03194739	      0.02529406	      0.03426553	      0.03206900	      0.05780418	      0.05868863	      0.05677000	      0.05624693	      0.05230949	      0.04816550	      0.01525851	      0.01651186	      0.06550154	      0.04489616	      0.03037823	      0.00939246	      0.10195210	      0.07297973	     -0.03703041	     -0.01847808	     -0.03334007	      0.00481866	     -0.07118626	     -0.07980489	      0.00000079	     -0.32847694	      0.00000060	     -0.00000086	    397.71196320	    408.95187096	     47.33581897	    -29.16446542	      9.90476754	    159.90968979	   -397.71196320	   -408.95187096	    -47.33581897	     12.42222229	    -11.83569744	     -2.56060528	    377.61016826	    533.46264263	     11.27554028	      7.12149972	     -7.84426168	    149.82964266	   -377.61016826	   -533.46264263	    -11.27554028	     -9.64334534	      6.43314826	      1.38713303	    -29.02963928	   -201.61419747	     76.42729720	     -5.08814751	      1.57872437	      2.24673650	     29.02963928	    201.61419747	    -76.42729720	     35.01790003	     -0.71787732	     11.39248593	      0.00000000	      0.00000000	      0.00000000	      0.00000000	      0.00000000	      0.00000000	      0.00000000	      0.00000000	      0.00000000	      0.00000000	      0.00000000	      0.00000000	    572.41341545	    653.68109048	      0.00000000	    217.55950068
      0.13653921	      0.00899544	      0.01031682	     39.81372740	     17.15273445	      9.02244583	    463.17582121	    324.70555810	      0.00000000	      0.00000000	      0.00000000	     -1.31632819	      0.00000000	      0.00000000	      0.00000000	      0.00000000	      0.00000001	      0.00000000	      0.03196260	      0.02530625	      0.03430060	      0.03209075	      0.05782259	      0.05868241	      0.05674069	      0.05624602	      0.05229416	      0.04813647	      0.01525851	      0.01651186	      0.06550154	      0.04489616	      0.03086867	      0.00987861	      0.10307978	      0.07370719	     -0.03672367	     -0.01858215	     -0.03383916	      0.00480237	     -0.07145844	     -0.08035950	      0.00000079	     -0.32847694	      0.00000060	     -0.00000086	    397.96352661	    407.65243224	     51.18378048	    -30.70386985	      9.94053172	    159.99427443	   -397.96352661	   -407.65243224	    -51.18378048	     12.47368679	    -11.91760153	     -2.50482791	    384.29592618	    532.75093016	      6.48231495	      8.99804962	     -7.92562808	    152.50309031	   -384.29592618	   -532.75093016	     -6.48231495	     -9.69959291	      6.55980584	      1.33752080	    -30.68114143	   -203.77022535	     77.11706250	     -5.12780226	      1.62331979	      2.26589684	     30.68114143	    203.77022535	    -77.11706250	     35.32722805	     -0.75008573	     12.05638048	      0.00000000	      0.00000000	      0.00000000	      0.00000000	      0.00000000	      0.00000000	      0.00000000	      0.00000000	      0.00000000	      0.00000000	      0.00000000	      0.00000000	    571.99235433	    656.92384100	      0.00000000	    220.02426800
      0.13682254	      0.00902517	      0.01035815	     39.94728837	     17.34575438	      9.12642358	    465.98951126	    325.99437140	      0.00000000	      0.00000000	      0.00000000	     -1.31909029	      0.00000000	      0.00000000	      0.00000000	      0.00000000	      0.00000001	      0.00000000	      0.03196988	      0.02531208	      0.03431715	      0.03210097	      0.05783127	      0.05867938	      0.05672673	      0.05624557	      0.05228687	      0.04812266	      0.01525851	      0.01651186	      0.06550154	      0.04489616	      0.03110342	      0.01011162	      0.10361212	      0.07404920	     -0.03657907	     -0.01863273	     -0.03407685	      0.00479435	     -0.07158797	     -0.08062319	      0.00000079	     -0.32847694	      0.00000060	     -0.00000086	    398.22845696	    406.92297626	     52.25067992	    -31.11677708	      9.95212358	    160.09604065	   -398.22845696	   -406.92297626	    -52.25067992	     12.47053984	    -11.94216500	     -2.48553926	    386.43687514	    536.21584594	      4.85332652	      9.70768206	     -7.95602736	    153.31414653	   -386.43687514	   -536.21584594	     -4.85332652	     -9.77985052	      6.60747929	      1.42536892	    -31.45891869	   -204.77125501	     77.40334928	     -5.14494637	      1.64402431	      2.27522585	     31.45891869	    204.77125501	    -77.40334928	     35.45653654	     -0.76530731	     12.36891868	      0.00000000	      0.00000000	      0.00000000	      0.00000000	      0.00000000	      0.00000000	      0.00000000	      0.00000000	      0.00000000	      0.00000000	      0.00000000	      0.00000000	    571.75374603	    660.97234941	      0.00000000	    221.16104748
      0.13720942	      0.00906605	      0.01041471	     40.12986391	     17.73577096	      9.37238362	    469.86738611	    327.88104901	      0.00000000	      0.00000000	      0.00000000	     -1.03523047	      0.00000000	      0.00000000	      0.00000000	      0.00000000	      0.00000001	      0.00000000	      0.03197998	      0.02532019	      0.03433962	      0.03211480	      0.05784314	      0.05867527	      0.05670774	      0.05624501	      0.05227696	      0.04810388	      0.01525851	      0.01651186	      0.06550154	      0.04489616	      0.03142928	      0.01043497	      0.10433481	      0.07451203	     -0.03638137	     -0.01870150	     -0.03440033	      0.00478426	     -0.07176378	     -0.08098210	      0.00000079	     -0.32847694	      0.00000060	     -0.00000086	    401.19787666	    404.15551291	     54.05249773	    -31.78397757	     10.02503798	    161.33288878	   -401.19787666	   -404.15551291	    -54.05249773	     12.43151244	    -12.04592827	     -2.58126341	    393.18213532	    540.66531555	      2.03389844	     10.92187381	     -8.06755579	    155.99186047	   -393.18213532	   -540.66531555	     -2.03389844	     -9.90793782	      6.73798459	      1.43562370	    -32.46189206	   -206.04220116	     78.03434588	     -5.17612956	      1.67553727	      2.28847565	     32.46189206	    206.04220116	    -78.03434588	     35.73243476	     -0.78596622	     12.77161932	      0.00000000	      0.00000000	      0.00000000	      0.00000000	      0.00000000	      0.00000000	      0.00000000	      0.00000000	      0.00000000	      0.00000000	      0.00000000	      0.00000000	    572.03416626	    668.51724863	      0.00000000	    222.70276656
